<svg width="36" height="36" viewBox="0 0 36 36" fill="none" xmlns="http://www.w3.org/2000/svg">
<g id="audience_theater_film_movie_cinema_icon_209560 1">
<path id="Vector" d="M16.8419 7.65003C16.5179 7.45803 16.1219 7.45203 15.7919 7.63803C15.4679 7.82403 15.2639 8.17203 15.2639 8.54403V13.848C15.2639 14.22 15.4679 14.568 15.7919 14.754C15.9479 14.844 16.1279 14.886 16.3019 14.886C16.4879 14.886 16.6739 14.838 16.8359 14.736L21.2459 12.084C21.5639 11.892 21.7499 11.562 21.7499 11.19C21.7499 10.824 21.5639 10.488 21.2459 10.296L16.8419 7.65003ZM16.4639 13.566V8.82603L20.4059 11.196L16.4639 13.566Z" fill="#894F68"/>
<path id="Vector_2" d="M30.8161 3.6C30.8161 3.27 30.5461 3 30.2161 3H5.78408C5.45408 3 5.18408 3.27 5.18408 3.6V18.792C5.18408 19.122 5.45408 19.392 5.78408 19.392H30.2161C30.5461 19.392 30.8161 19.122 30.8161 18.792V6.186C30.8161 5.856 30.5461 5.586 30.2161 5.586C29.8861 5.586 29.6161 5.856 29.6161 6.186V18.192H6.38408V4.2H30.2161C30.5461 4.2 30.8161 3.93 30.8161 3.6Z" fill="#894F68"/>
<path id="Vector_3" d="M12.678 23.718C12.678 22.038 11.316 20.676 9.63599 20.676C7.95599 20.676 6.59399 22.038 6.59399 23.718C6.59399 25.392 7.95599 26.76 9.63599 26.76C11.31 26.76 12.678 25.398 12.678 23.718ZM7.79399 23.718C7.79399 22.704 8.62199 21.876 9.63599 21.876C10.65 21.876 11.478 22.704 11.478 23.718C11.478 24.732 10.65 25.56 9.63599 25.56C8.62199 25.56 7.79399 24.738 7.79399 23.718Z" fill="#894F68"/>
<path id="Vector_4" d="M20.22 23.718C20.22 22.038 18.858 20.676 17.178 20.676C15.504 20.676 14.136 22.038 14.136 23.718C14.136 25.392 15.498 26.76 17.178 26.76C18.858 26.76 20.22 25.398 20.22 23.718ZM15.336 23.718C15.336 22.704 16.164 21.876 17.178 21.876C18.192 21.876 19.02 22.704 19.02 23.718C19.02 24.732 18.192 25.56 17.178 25.56C16.164 25.56 15.336 24.738 15.336 23.718Z" fill="#894F68"/>
<path id="Vector_5" d="M26.298 26.814C26.166 26.814 26.04 26.856 25.938 26.934C25.098 27.564 24.342 27.564 23.502 26.934C23.4 26.856 23.274 26.814 23.142 26.814C22.248 26.814 21.456 27.246 20.946 27.9C20.436 27.246 19.644 26.814 18.75 26.814C18.618 26.814 18.492 26.856 18.39 26.934C17.55 27.564 16.794 27.564 15.954 26.934C15.852 26.856 15.726 26.814 15.594 26.814C14.7 26.814 13.914 27.246 13.398 27.9C12.888 27.246 12.096 26.814 11.202 26.814C11.07 26.814 10.944 26.856 10.842 26.934C10.002 27.564 9.246 27.564 8.406 26.934C8.304 26.856 8.178 26.814 8.046 26.814C6.504 26.814 5.25 28.068 5.25 29.61V32.4C5.25 32.73 5.52 33 5.85 33H13.392H20.934H28.476C28.806 33 29.076 32.73 29.076 32.4V29.604C29.094 28.068 27.84 26.814 26.298 26.814ZM6.462 29.604C6.462 28.782 7.086 28.104 7.878 28.02C9.03 28.794 10.236 28.794 11.388 28.02C12.186 28.11 12.804 28.788 12.804 29.604V31.8H6.462V29.604ZM14.01 29.604C14.01 28.782 14.634 28.104 15.426 28.02C16.578 28.794 17.784 28.794 18.936 28.02C19.734 28.11 20.352 28.788 20.352 29.604V31.8H14.01V29.604ZM27.894 31.8H21.552V29.604C21.552 28.782 22.176 28.104 22.968 28.02C24.12 28.794 25.326 28.794 26.478 28.02C27.276 28.11 27.894 28.788 27.894 29.604V31.8Z" fill="#894F68"/>
<path id="Vector_6" d="M27.762 23.718C27.762 22.038 26.4 20.676 24.72 20.676C23.04 20.676 21.678 22.038 21.678 23.718C21.678 25.392 23.04 26.76 24.72 26.76C26.4 26.76 27.762 25.398 27.762 23.718ZM22.884 23.718C22.884 22.704 23.712 21.876 24.726 21.876C25.74 21.876 26.568 22.704 26.568 23.718C26.568 24.732 25.74 25.56 24.726 25.56C23.712 25.56 22.884 24.738 22.884 23.718Z" fill="#894F68"/>
</g>
</svg>
