<svg width="36" height="36" viewBox="0 0 36 36" fill="none" xmlns="http://www.w3.org/2000/svg">
<g clip-path="url(#clip0_308_129)">
<path d="M18 0C8.05844 0 0 8.05844 0 18C0 27.9416 8.05844 36 18 36C27.9416 36 36 27.9416 36 18C36 8.05844 27.9416 0 18 0ZM18 33.1875C9.61193 33.1875 2.8125 26.3881 2.8125 18C2.8125 9.61193 9.61193 2.8125 18 2.8125C26.3881 2.8125 33.1875 9.61193 33.1875 18C33.1875 26.3881 26.3881 33.1875 18 33.1875Z" fill="black"/>
<path d="M24.8668 16.7258L14.0264 10.4262C12.8421 9.72529 11.707 10.29 11.707 11.6809V24.3207C11.707 25.7094 12.8421 26.2752 14.0264 25.5731L24.7811 19.2746C25.9698 18.5737 26.0544 17.4268 24.8668 16.7258Z" fill="black"/>
</g>
<defs>
<clipPath id="clip0_308_129">
<rect width="36" height="36" fill="white"/>
</clipPath>
</defs>
</svg>
