<svg width="11" height="10" viewBox="0 0 11 10" fill="none" xmlns="http://www.w3.org/2000/svg">
<path fill-rule="evenodd" clip-rule="evenodd" d="M4.75 7.57498L6.74 6.43498C7.075 6.24498 7.075 5.75998 6.74 5.56498L4.75 4.42498C4.415 4.23498 4 4.47998 4 4.85998V7.13498C4 7.51998 4.415 7.76498 4.75 7.57498ZM10 1.99998H6.205L7.675 0.529976C7.775 0.429976 7.775 0.274976 7.675 0.174976C7.575 0.0749756 7.42 0.0749756 7.32 0.174976L5.5 1.99498L3.68 0.174976C3.58 0.0749756 3.425 0.0749756 3.325 0.174976C3.225 0.274976 3.225 0.429976 3.325 0.529976L4.795 1.99998H1C0.45 1.99998 0 2.44498 0 2.99998V8.99998C0 9.54998 0.45 9.99998 1 9.99998H10C10.55 9.99998 11 9.54998 11 8.99998V2.99998C11 2.44498 10.55 1.99998 10 1.99998ZM9.5 8.99998H1.5C1.225 8.99998 1 8.77497 1 8.49998V3.49998C1 3.22498 1.225 2.99998 1.5 2.99998H9.5C9.775 2.99998 10 3.22498 10 3.49998V8.49998C10 8.77497 9.775 8.99998 9.5 8.99998Z" fill="#1D1D1D"/>
</svg>
