<svg width="7" height="12" viewBox="0 0 7 12" fill="none" xmlns="http://www.w3.org/2000/svg">
<g clip-path="url(#clip0_292_19)">
<path d="M3.6153 7.19204C2.88236 7.19204 2.28942 6.61191 2.28942 5.90462V3.0119C2.28942 2.29667 2.88236 1.72449 3.6153 1.72449C4.34825 1.72449 4.94119 2.30462 4.94119 3.0119V5.89667C4.94119 6.6119 4.34825 7.19204 3.6153 7.19204ZM5.41883 5.08608H6.30825V6.18277C6.30825 7.40661 5.31177 8.41588 4.06001 8.4874V9.38541H5.39413V10.2437H1.83648V9.38541H3.1706V8.4874C1.91883 8.41588 0.922363 7.40661 0.922363 6.18277V5.08608H1.81178V6.18277C1.81178 6.98541 2.48707 7.62912 3.3106 7.62912H3.91177C4.74354 7.62912 5.4106 6.97747 5.4106 6.18277V5.08608H5.41883Z" fill="black"/>
</g>
<defs>
<clipPath id="clip0_292_19">
<rect width="7" height="12" fill="white"/>
</clipPath>
</defs>
</svg>
