<svg width="24" height="20" viewBox="0 0 24 20" fill="none" xmlns="http://www.w3.org/2000/svg">
<path d="M19.6699 2.61882C19.6638 2.60695 19.6536 2.59764 19.6412 2.59257C18.2116 1.93665 16.703 1.46892 15.153 1.2011C15.1389 1.19848 15.1244 1.20037 15.1114 1.2065C15.0985 1.21262 15.0878 1.22267 15.0809 1.23522C14.8755 1.60808 14.689 1.99107 14.5221 2.38272C12.8514 2.1291 11.1519 2.1291 9.48117 2.38272C9.31324 1.99007 9.12376 1.60699 8.91361 1.23522C8.9064 1.22295 8.89566 1.21313 8.88279 1.20704C8.86992 1.20095 8.85552 1.19888 8.84146 1.2011C7.29135 1.46836 5.78259 1.93612 4.35316 2.59261C4.34092 2.5978 4.3306 2.60666 4.32361 2.61796C1.46502 6.88689 0.681945 11.0508 1.0661 15.1632C1.06718 15.1733 1.07027 15.1831 1.0752 15.1919C1.08013 15.2008 1.08679 15.2086 1.09478 15.2148C2.75931 16.4473 4.62111 17.388 6.60072 17.9969C6.61466 18.0011 6.62955 18.0009 6.64338 17.9964C6.65721 17.9918 6.66932 17.9832 6.67808 17.9715C7.10326 17.393 7.48 16.7804 7.80447 16.14C7.80893 16.1312 7.81147 16.1215 7.81194 16.1117C7.8124 16.1019 7.81078 16.092 7.80717 16.0829C7.80356 16.0737 7.79804 16.0654 7.79099 16.0585C7.78394 16.0516 7.77551 16.0463 7.76626 16.0429C7.17217 15.8156 6.59702 15.5416 6.04621 15.2234C6.0362 15.2176 6.0278 15.2093 6.02174 15.1994C6.01568 15.1895 6.01215 15.1783 6.01147 15.1667C6.01078 15.1551 6.01296 15.1435 6.01781 15.133C6.02266 15.1224 6.03003 15.1132 6.03927 15.1062C6.15485 15.0196 6.2705 14.9295 6.38086 14.8386C6.39066 14.8305 6.40253 14.8253 6.41512 14.8236C6.4277 14.8219 6.44052 14.8238 6.45211 14.829C10.0607 16.4759 13.9675 16.4759 17.5334 14.829C17.545 14.8234 17.5579 14.8213 17.5707 14.8229C17.5835 14.8244 17.5955 14.8296 17.6055 14.8377C17.7159 14.9287 17.8315 15.0196 17.948 15.1062C17.9573 15.1132 17.9647 15.1223 17.9696 15.1328C17.9745 15.1433 17.9768 15.1549 17.9762 15.1664C17.9756 15.178 17.9722 15.1893 17.9662 15.1992C17.9602 15.2092 17.9518 15.2175 17.9419 15.2234C17.3923 15.5443 16.8167 15.8181 16.221 16.0421C16.2118 16.0456 16.2034 16.051 16.1964 16.058C16.1893 16.065 16.1839 16.0734 16.1804 16.0826C16.1768 16.0919 16.1753 16.1018 16.1758 16.1116C16.1764 16.1215 16.179 16.1312 16.1835 16.14C16.5134 16.7769 16.8896 17.3887 17.309 17.9705C17.3175 17.9825 17.3296 17.9914 17.3435 17.9961C17.3574 18.0008 17.3724 18.0011 17.3864 17.9968C19.3696 17.39 21.2346 16.4491 22.9012 15.2148C22.9093 15.2089 22.9161 15.2013 22.921 15.1926C22.926 15.1838 22.929 15.1741 22.9299 15.1641C23.3898 10.4097 22.16 6.27991 19.6699 2.61882ZM8.34338 12.6592C7.25693 12.6592 6.36173 11.6622 6.36173 10.4378C6.36173 9.21331 7.23957 8.21622 8.34338 8.21622C9.45582 8.21622 10.3424 9.22197 10.325 10.4377C10.325 11.6622 9.44712 12.6592 8.34338 12.6592ZM15.6701 12.6592C14.5837 12.6592 13.6885 11.6622 13.6885 10.4378C13.6885 9.21331 14.5664 8.21622 15.6701 8.21622C16.7826 8.21622 17.6691 9.22197 17.6518 10.4377C17.6518 11.6622 16.7826 12.6592 15.6701 12.6592Z" fill="#CACACA"/>
</svg>
